<?xml version="1.0" encoding="utf-8"?>
<!-- Generator: Adobe Illustrator 21.1.0, SVG Export Plug-In . SVG Version: 6.00 Build 0)  -->
<svg version="1.1" id="Layer_1" xmlns="http://www.w3.org/2000/svg" xmlns:xlink="http://www.w3.org/1999/xlink" x="0px" y="0px"
	 viewBox="0 0 720 720" style="enable-background:new 0 0 720 720;" xml:space="preserve">
<path d="M366.4,333.1c-1.8,4.6-4.3,8.3-7.1,12.3c-2.3,3.3-3.5,7.2-5.4,10.8c-4.4,8.2-5,18.1-5.4,27.2c-0.1,1.4,2.4,4.8,3.7,2.6
	c1.5-2.4,1.4-4.7,2.3-7.3c1.1-3,2.8-5.7,3.7-8.8c1.7-6.4,1.8-13,4.2-19.2c0.1-0.4,0.2-0.7,0.1-1.1c0.6-1,1.2-2,1.9-3
	c2.4-3.4,4.3-7,5.8-10.9C371.1,333.7,367.5,330.5,366.4,333.1z"/>
</svg>
