<?xml version="1.0" encoding="utf-8"?>
<!-- Generator: Adobe Illustrator 21.1.0, SVG Export Plug-In . SVG Version: 6.00 Build 0)  -->
<svg version="1.1" id="Layer_1" xmlns="http://www.w3.org/2000/svg" xmlns:xlink="http://www.w3.org/1999/xlink" x="0px" y="0px"
	 viewBox="0 0 720 720" style="enable-background:new 0 0 720 720;" xml:space="preserve">
<g>
	<g>
		<path d="M353.9,334.7c-3.6,8-1.5,16.8-0.7,25.3c0.4,4.4,0.3,9.2,2.1,13.2c1.8,4.1,4.6,8,6.6,12c0.7,1.3,4.8,2.3,4.7,0.1
			c-0.2-7.6-4.2-14.9-5.1-22.5c-0.4-3.4-1.4-6.6-1.8-10c-0.5-4.6-0.3-9.3-0.1-13.9c0.1-2.1-4.7-3.1-4.8-1.3
			c-0.4,8.1,0.4,15.2,1.7,23.2c0.6,4,1.1,7.6,2.2,11.5c1.2,4.1,2.9,8.3,3.1,12.5c1.6,0,3.1,0,4.7,0.1c-1.7-3.4-3.8-6.5-5.5-9.8
			c-2.4-4.6-2.4-9.6-2.9-14.6c-0.8-8.1-2.8-16.7,0.7-24.5C359.5,334.2,354.8,332.8,353.9,334.7L353.9,334.7z"/>
	</g>
</g>
</svg>
