<?xml version="1.0" encoding="utf-8"?>
<!-- Generator: Adobe Illustrator 21.1.0, SVG Export Plug-In . SVG Version: 6.00 Build 0)  -->
<svg version="1.1" id="Layer_1" xmlns="http://www.w3.org/2000/svg" xmlns:xlink="http://www.w3.org/1999/xlink" x="0px" y="0px"
	 viewBox="0 0 240 440" style="enable-background:new 0 0 240 440;" xml:space="preserve">
<g>
	<g>
		<path d="M98.5,280.6c-3.7,11.3-6.7,22.9-8.7,34.7c-1.1,6.2,9,10.2,10.2,3.4c2.1-11.8,5-23.3,8.7-34.7
			C110.7,278.1,100.7,274.1,98.5,280.6L98.5,280.6z"/>
	</g>
</g>
<g>
	<g>
		<path d="M141.1,286.7c0.2,14.1-0.9,28.1-3.5,42c-0.4,1.9,10.3,4.5,10.5,3.3c2.6-13.9,3.7-27.9,3.5-42
			C151.6,287.5,141.1,286.1,141.1,286.7L141.1,286.7z"/>
	</g>
</g>
<g>
	<path d="M161.5,131.2c12.3,0.9,10.6,21.8-1.4,20.6c-12-1.1-30.1-2-38.4-3.2c-8.3-1.1-10-20.6,2-20.6
		C135.7,128,161.5,131.2,161.5,131.2z"/>
	<path d="M161.5,157.9c12.3,0.9,10.6,21.8-1.4,20.6c-12-1.1-30.1-2-38.4-3.2c-8.3-1.1-10-20.6,2-20.6
		C135.7,154.8,161.5,157.9,161.5,157.9z"/>
	<path d="M161.5,184.7c12.3,0.9,10.6,21.8-1.4,20.6c-12-1.1-30.1-2-38.4-3.2c-8.3-1.1-10-20.6,2-20.6
		C135.7,181.5,161.5,184.7,161.5,184.7z"/>
	<polygon points="131.9,121.1 152.3,123.1 152.3,17 131.1,17 	"/>
	<path d="M87.5,91.1l12.9-10.9l22.9,25.5l0.6,15.2c0,0-6.6-1.1-8.9,1.7C110.1,118,87.5,91.1,87.5,91.1z"/>
</g>
<g>
	<g>
		<path d="M55.8,232.3c-11.6,1.8-16.6,14-21.9,23c-6.3,10.5-13.7,21.1-17.4,32.9c-3.8,12-3.9,24.5-3.7,37
			c0.2,13.5,0.4,27.3,3.5,40.4c2.3,9.8,6.5,19.4,13.3,27c8,8.9,19.1,12.3,30.2,15.7c25.7,8,53.2,15.7,80.3,16.2
			c23,0.4,47.2-5.6,63.7-22.4c17-17.3,21.9-42.5,23.2-65.9c0.7-13.2,0.9-26.4,1.2-39.6c0.3-11.2,0.2-22.6-2.1-33.6
			c-2.2-10.5-6.8-21.4-14.7-28.9c-9-8.5-23.2-9-34.9-11c-15.2-2.5-30.6-4.4-46-5.6c-14.4-1.2-29.2-2.4-43.6-0.9
			c-24.7,2.6-46.4,18-52.9,42.6c-1.6,6,9,8.6,10.4,3.1c5.2-19.4,20.6-33.2,40.5-36.3c11.1-1.7,22.4-1,33.5-0.4
			c12.2,0.7,24.4,1.9,36.5,3.4c11.6,1.5,23.3,3.3,34.8,5.5c5.3,1,10.1,1.9,14.1,5.9c3.8,3.7,6.6,8.7,8.5,13.6
			c7.6,19.1,4.9,40.9,4.5,61c-0.5,22.5-0.7,46-11.1,66.5c-9.6,18.9-27.8,29.9-48.4,33c-23.4,3.6-47.5-2.1-70.1-7.9
			c-11.3-2.9-22.5-6.1-33.5-9.9c-9.8-3.4-16.7-9.3-21.4-18.6c-5.5-10.6-7.1-23-7.8-34.8c-0.7-12.9-1.4-26.3,0-39.2
			c1.4-12.9,6.7-23.6,13.3-34.6c3.2-5.3,6.3-10.7,9.5-16c2.5-4.1,5.6-11.8,11-12.6C65.2,240,62.2,231.4,55.8,232.3L55.8,232.3z"/>
	</g>
</g>
</svg>
