<?xml version="1.0" encoding="utf-8"?>
<!-- Generator: Adobe Illustrator 21.1.0, SVG Export Plug-In . SVG Version: 6.00 Build 0)  -->
<svg version="1.1" id="Layer_1" xmlns="http://www.w3.org/2000/svg" xmlns:xlink="http://www.w3.org/1999/xlink" x="0px" y="0px"
	 viewBox="0 0 720 720" style="enable-background:new 0 0 720 720;" xml:space="preserve">
<path d="M407.4,385.3c-0.6-4.7-2.7-7.5-6.1-10.6c-4.3-4-8.8-7.9-13.5-11.5c-4.7-3.5-9.4-4.9-15.1-5.7c-13.5-1.9-25.7,0.4-38.9,2.5
	c-1.4,0.2-1.5,1.4-1,2.4c-14.9,9.7-22.4,26.5-21.3,44.5c0.6,8.6,2.8,17.7,8.6,24.3c6.3,7.1,15.5,8.9,24.3,11
	c18.8,4.5,44,6.2,56.3-12c5.8-8.6,7.6-18.9,7.6-29.1C408.3,395.8,408.1,390.5,407.4,385.3z M399.8,421.8c-8.1,17.7-28,21-45.6,18.2
	c-8.5-1.3-19-2.8-26.5-7.2c-7.4-4.3-10.4-13-11.5-21c-2.6-19.6,5.7-38.5,23.5-47.8c0.3-0.1,0.5-0.3,0.6-0.5c7.7-1.4,15.6-3,23.4-2.7
	c4.4,0.2,9,0.7,13.4,1.6c5.5,1.1,9.3,4.3,13.5,7.8c3.2,2.7,6.5,5.4,9.5,8.3c4,4,3.6,10.9,3.9,16.3
	C404.2,403.9,403.7,413.3,399.8,421.8z"/>
<g>
	<path d="M375.5,321c5.3,0.4,4.5,9.3-0.6,8.8c-5.2-0.5-12.9-0.9-16.4-1.3c-3.6-0.5-4.3-8.8,0.9-8.8C364.5,319.6,375.5,321,375.5,321
		z"/>
	<path d="M375.5,332.4c5.3,0.4,4.5,9.3-0.6,8.8c-5.2-0.5-12.9-0.9-16.4-1.3c-3.6-0.5-4.3-8.8,0.9-8.8
		C364.5,331.1,375.5,332.4,375.5,332.4z"/>
	<path d="M375.5,343.9c5.3,0.4,4.5,9.3-0.6,8.8c-5.2-0.5-12.9-0.9-16.4-1.3c-3.6-0.5-4.3-8.8,0.9-8.8
		C364.5,342.5,375.5,343.9,375.5,343.9z"/>
	<polygon points="362.9,316.7 371.6,317.5 371.6,272.1 362.5,272.1 	"/>
	<path d="M343.8,303.8l5.5-4.7l9.8,10.9l0.2,6.5c0,0-2.8-0.5-3.8,0.7C353.5,315.3,343.8,303.8,343.8,303.8z"/>
</g>
<g>
	<g>
		<path d="M350.5,383c-4.2,7.2-8.5,14.4-12.7,21.6c-1,1.7,2,5.5,3.3,3.2c4.2-7.2,8.5-14.4,12.7-21.6
			C354.8,384.4,351.8,380.7,350.5,383L350.5,383z"/>
	</g>
</g>
<g>
	<g>
		<path d="M339.6,383.7c2.5,8.6,5.4,17.2,8.6,25.6c1,2.5,5.9,2.3,4.8-0.5c-3.2-8.4-6.1-16.9-8.6-25.6
			C343.6,380.5,338.7,380.7,339.6,383.7L339.6,383.7z"/>
	</g>
</g>
<g>
	<g>
		<path d="M374.9,387.2c-4.3,6.8-8.5,13.6-12.8,20.4c-0.8,1.2,3.7,3.5,4.6,2.1c4.3-6.8,8.5-13.6,12.8-20.4
			C380.2,388.1,375.8,385.8,374.9,387.2L374.9,387.2z"/>
	</g>
</g>
<g>
	<g>
		<path d="M365.2,386.3c1.3,9.6,6.6,17.3,8.8,26.5c0.4,1.7,5.3,1.3,5-0.1c-2.1-9.3-7.5-17-8.8-26.5C370,384.5,365,384.8,365.2,386.3
			L365.2,386.3z"/>
	</g>
</g>
</svg>
