<?xml version="1.0" encoding="utf-8"?>
<!-- Generator: Adobe Illustrator 21.1.0, SVG Export Plug-In . SVG Version: 6.00 Build 0)  -->
<svg version="1.1" id="Layer_1" xmlns="http://www.w3.org/2000/svg" xmlns:xlink="http://www.w3.org/1999/xlink" x="0px" y="0px"
	 viewBox="0 0 383 102" style="enable-background:new 0 0 383 102;" xml:space="preserve">
<style type="text/css">
	.st0{fill:#D12026;}
	.st1{fill:#FFFFFF;}
	.st2{fill:#EEEEEE;}
	.st3{fill:#282828;}
</style>
<g>
	<rect class="st0" width="102" height="102"/>
	<g>
		<path class="st1" d="M27.2,27.5l18.7,18.8L27.1,65.1l-4-4l14.8-14.8L23.1,31.6L27.2,27.5z"/>
		<path class="st1" d="M44,71v-6h31v6H44z"/>
	</g>
</g>
<g>
	<path class="st2" d="M123.5,10.4v9c1.3-2,3-2.9,5.3-2.9c1.5,0,3,0.5,4.1,1.4c1.2,1,1.9,2.7,1.9,4.9V35H130V23.8
		c0-1.1-0.1-1.7-0.5-2.3c-0.5-0.7-1.3-1.1-2.4-1.1c-2.1,0-3.6,1.5-3.6,3.6V35h-4.7V10.4H123.5z"/>
	<path class="st2" d="M153.5,35h-5.1c-0.4-0.5-0.5-0.9-0.5-1.8c-1.7,1.8-3.5,2.6-5.5,2.6c-3.3,0-5.5-2.2-5.5-5.5s1.8-5.1,5.4-5.7
		l1.9-0.3c2.3-0.4,2.3-0.4,3-0.7c0.5-0.3,0.8-0.8,0.8-1.4c0-1.2-0.9-1.8-2.7-1.8c-2.3,0-3.1,0.6-3.3,2.5h-4.6
		c0.3-4.2,2.9-6.3,7.8-6.3c4.9,0,7.5,1.9,7.5,5.6v10.1c0,0.9,0.3,1.5,1.1,2.2V35z M147.8,26.4c-0.5,0.3-0.7,0.3-2,0.6l-1.6,0.3
		c-2,0.4-2.7,1.1-2.7,2.5c0,1.4,1,2.2,2.6,2.2c2.4,0,3.7-1.6,3.7-4.3V26.4z"/>
	<path class="st2" d="M167,23.6c-0.5-2.4-1.5-3.3-3.4-3.3c-1.4,0-2.4,0.5-2.9,1.6c-0.6,1.1-0.9,2.7-0.9,4.4c0,3.6,1.4,5.7,3.8,5.7
		c1.9,0,2.8-0.9,3.4-3.3h4.5c-0.4,4.4-3.5,7.1-7.9,7.1c-5.4,0-8.5-3.5-8.5-9.5c0-6.2,3.1-9.8,8.6-9.8c4.6,0,7.5,2.7,7.9,7.1H167z"/>
	<path class="st2" d="M184.7,16.8h5.4l-6.2,6.9l6.7,11.3h-5.5l-4.4-8l-1.9,2.1v6H174V10.4h4.7v13.5L184.7,16.8z"/>
	<path class="st2" d="M195,27.4c0.1,1.7,0.2,2.5,0.7,3.2c0.7,1,1.8,1.6,3.1,1.6c1.7,0,3-0.8,3.6-2.3h4.7c-1,3.6-4.4,5.9-8.4,5.9
		c-5.2,0-8.3-3.6-8.3-9.4c0-6.1,3.2-9.9,8.4-9.9c3.7,0,6.6,2,7.8,5.3c0.4,1.3,0.7,3,0.7,4.8c0,0.2,0,0.4,0,0.8H195z M202.3,24.2
		c-0.2-2.7-1.5-4.2-3.7-4.2c-2.1,0-3.3,1.4-3.6,4.2H202.3z"/>
	<path class="st2" d="M214.5,16.8v3.6c1-2.5,2.9-3.9,5.1-3.9c0.2,0,0.3,0,0.6,0v4.8c-0.6-0.1-1-0.1-1.5-0.1c-2.8,0-4.2,1.4-4.2,4.2
		V35h-4.7V16.8H214.5z"/>
	<path class="st2" d="M232.9,35h-5.1v-9.1l-8.2-15.5h5.6l5,10.9l4.7-10.9h5.7l-7.8,15.5V35z"/>
	<path class="st2" d="M256.1,26.2c0,5.9-3.4,9.5-9,9.5c-5.6,0-9-3.6-9-9.7c0-6,3.4-9.7,9-9.7C252.8,16.4,256.1,20.1,256.1,26.2z
		 M242.8,26.1c0,3.5,1.7,5.8,4.3,5.8c2.5,0,4.3-2.4,4.3-5.8c0-3.6-1.7-5.9-4.3-5.9C244.5,20.3,242.8,22.6,242.8,26.1z"/>
	<path class="st2" d="M269.7,35v-2.2c-1.4,2.1-3,2.9-5.5,2.9c-3.9,0-6.1-2.3-6.1-6.3V16.8h4.7v11.7c0,2.2,1,3.3,3,3.3
		c2.3,0,3.8-1.4,3.8-3.6V16.8h4.7V35H269.7z"/>
</g>
<g>
	<path class="st3" d="M126.9,41.9v16.7c2.4-3.8,5.6-5.4,9.9-5.4c2.8,0,5.6,0.9,7.6,2.6c2.3,1.9,3.4,4.9,3.4,9.1v22.7h-8.8V66.9
		c0-2.1-0.2-3.1-1-4.2c-1-1.4-2.4-2.1-4.4-2.1c-3.9,0-6.8,2.8-6.8,6.6v20.3h-8.8V41.9H126.9z"/>
	<path class="st3" d="M182.5,87.5H173c-0.8-1-1-1.6-1-3.4c-3.1,3.3-6.5,4.8-10.3,4.8c-6.2,0-10.3-4.1-10.3-10.1
		c0-6.1,3.3-9.5,10-10.6l3.5-0.6c4.3-0.7,4.3-0.7,5.5-1.3c0.9-0.6,1.5-1.5,1.5-2.6c0-2.3-1.7-3.4-5.1-3.4c-4.3,0-5.8,1.1-6.2,4.6
		h-8.4c0.6-7.8,5.3-11.7,14.5-11.7c9.1,0,13.8,3.5,13.8,10.4v18.8c0,1.7,0.5,2.7,2,4.1V87.5z M171.9,71.6c-1,0.5-1.4,0.6-3.7,1.1
		l-3,0.6c-3.6,0.8-5,2-5,4.6c0,2.5,1.8,4.1,4.8,4.1c4.4,0,6.9-2.9,6.9-7.9V71.6z"/>
	<path class="st3" d="M194.7,53.7v4.9c2.5-3.8,5.6-5.4,10.1-5.4c7.3,0,11.3,4.2,11.3,11.7v22.7h-8.8V66.7c0-4-1.9-6.1-5.6-6.1
		c-4.3,0-7.1,2.6-7.1,6.6v20.3H186V53.7H194.7z"/>
	<path class="st3" d="M251,53.7v34.9c0,7.8-5.9,12.5-15.6,12.5c-4.8,0-8.4-1.1-11.1-3.3c-2.3-1.9-3.3-3.7-3.3-6.3h9
		c0.7,2.6,2.6,3.9,5.8,3.9c4.1,0,7-2.8,7-6.9v-4.6c-3.1,3.7-5.3,4.9-8.9,4.9c-8.1,0-13.6-7.1-13.6-17.5c0-5.9,1.8-10.8,5.1-14.3
		c2.3-2.4,5.6-3.9,8.6-3.9c3.6,0,6.3,1.8,8.7,5.8v-5.2H251z M228.9,71.3c0,6.1,2.7,10.3,6.5,10.3c4.4,0,7.3-4.2,7.3-10.3
		c0-6.3-3.1-10.8-7.2-10.8C231.6,60.5,228.9,64.9,228.9,71.3z"/>
	<path class="st3" d="M264.5,53.7v4.2c2.9-3.5,5.4-4.8,9.3-4.8c4.2,0,7.6,1.8,9.2,5c2.6-3.5,5.6-5,9.9-5c6.8,0,10.8,3.9,10.8,10.5
		v23.9h-8.8V65c0-2.7-1.8-4.4-4.8-4.4c-3.8,0-6,2.5-6,6.6v20.3h-8.8V65c0-2.7-1.8-4.4-4.8-4.4c-3.8,0-6,2.4-6,6.6v20.3h-8.8V53.7
		H264.5z"/>
	<path class="st3" d="M338,87.5h-9.5c-0.8-1-1-1.6-1-3.4c-3.1,3.3-6.5,4.8-10.3,4.8C311,89,307,84.9,307,78.8c0-6.1,3.3-9.5,10-10.6
		l3.5-0.6c4.3-0.7,4.3-0.7,5.5-1.3c0.9-0.6,1.5-1.5,1.5-2.6c0-2.3-1.7-3.4-5.1-3.4c-4.3,0-5.8,1.1-6.2,4.6h-8.4
		c0.6-7.8,5.3-11.7,14.5-11.7c9.1,0,13.8,3.5,13.8,10.4v18.8c0,1.7,0.5,2.7,2,4.1V87.5z M327.4,71.6c-1,0.5-1.4,0.6-3.7,1.1l-3,0.6
		c-3.6,0.8-5,2-5,4.6c0,2.5,1.8,4.1,4.8,4.1c4.4,0,6.9-2.9,6.9-7.9V71.6z"/>
	<path class="st3" d="M351.2,53.7v4.9c2.5-3.8,5.6-5.4,10.1-5.4c7.3,0,11.3,4.2,11.3,11.7v22.7h-8.8V66.7c0-4-1.9-6.1-5.6-6.1
		c-4.3,0-7.1,2.6-7.1,6.6v20.3h-8.8V53.7H351.2z"/>
</g>
</svg>
